<svg viewBox="0 0 24 24" xmlns="http://www.w3.org/2000/svg">
    <path fill-rule="evenodd" clip-rule="evenodd" d="M5.00002 8.50896V10.0947C5.00002 10.6447 5.45002 11.0947 6.00002 11.0947C6.42686 11.0947 6.79346 10.8236 6.93625 10.4452L13.5857 17.0947H7.00002V15.3047C7.00002 14.8547 6.46002 14.6347 6.15002 14.9547L3.36002 17.7447C3.16002 17.9447 3.16002 18.2547 3.36002 18.4547L6.15002 21.2447C6.46002 21.5547 7.00002 21.3347 7.00002 20.8847V19.0947H15.5857L18.2929 21.8018C18.6834 22.1924 19.3166 22.1924 19.7071 21.8018C20.0976 21.4113 20.0976 20.7781 19.7071 20.3876L3.70711 4.38762C3.31658 3.9971 2.68342 3.9971 2.29289 4.38762C1.90237 4.77814 1.90237 5.41131 2.29289 5.80183L5.00002 8.50896ZM17 14.0947V14.9734L19 16.9734V14.0947C19 13.5447 18.55 13.0947 18 13.0947C17.45 13.0947 17 13.5447 17 14.0947ZM7.12126 5.09467L9.12126 7.09467H17V8.88467C17 9.33467 17.54 9.55467 17.85 9.23467L20.64 6.44467C20.84 6.24467 20.84 5.93467 20.64 5.73467L17.85 2.94467C17.54 2.63467 17 2.85467 17 3.30467V5.09467H7.12126Z" />
</svg>
